<svg width="28" height="28" viewBox="0 0 28 28" fill="none" xmlns="http://www.w3.org/2000/svg">
<path d="M18.6667 4.66732C19.7517 4.66732 20.2942 4.66732 20.7393 4.78658C21.9471 5.11021 22.8905 6.05363 23.2142 7.26145C23.3334 7.70653 23.3334 8.24902 23.3334 9.33398V20.0673C23.3334 22.0275 23.3334 23.0076 22.9519 23.7563C22.6164 24.4149 22.0809 24.9503 21.4224 25.2858C20.6737 25.6673 19.6936 25.6673 17.7334 25.6673H10.2667C8.30656 25.6673 7.32647 25.6673 6.57778 25.2858C5.91921 24.9503 5.38378 24.4149 5.04823 23.7563C4.66675 23.0076 4.66675 22.0275 4.66675 20.0673V9.33398C4.66675 8.24902 4.66675 7.70653 4.78601 7.26145C5.10964 6.05363 6.05306 5.11021 7.26088 4.78658C7.70596 4.66732 8.24845 4.66732 9.33342 4.66732M10.5001 17.5007L12.8334 19.834L18.0834 14.584M11.2001 7.00065H16.8001C17.4535 7.00065 17.7802 7.00065 18.0297 6.87349C18.2493 6.76164 18.4277 6.58316 18.5396 6.36364C18.6667 6.11408 18.6667 5.78738 18.6667 5.13398V4.20065C18.6667 3.54726 18.6667 3.22056 18.5396 2.971C18.4277 2.75147 18.2493 2.573 18.0297 2.46114C17.7802 2.33398 17.4535 2.33398 16.8001 2.33398H11.2001C10.5467 2.33398 10.22 2.33398 9.97043 2.46114C9.7509 2.573 9.57243 2.75147 9.46057 2.971C9.33342 3.22056 9.33342 3.54726 9.33342 4.20065V5.13398C9.33342 5.78738 9.33342 6.11408 9.46057 6.36364C9.57243 6.58316 9.7509 6.76164 9.97043 6.87349C10.22 7.00065 10.5467 7.00065 11.2001 7.00065Z" stroke="#535862" stroke-width="2.5" stroke-linecap="round" stroke-linejoin="round"/>
</svg>
