<svg width="40" height="40" viewBox="0 0 40 40" fill="none" xmlns="http://www.w3.org/2000/svg">
<path d="M0 20C0 8.95431 8.95431 0 20 0C31.0457 0 40 8.95431 40 20C40 31.0457 31.0457 40 20 40C8.95431 40 0 31.0457 0 20Z" fill="#DAE9F8"/>
<path d="M17.5 24.5833H12.9167M15.4167 20H11.6667M17.5 15.4167H13.3333M24.1667 12.5L18.6696 20.1958C18.4263 20.5365 18.3047 20.7068 18.3099 20.8488C18.3145 20.9724 18.3738 21.0876 18.4717 21.1632C18.5842 21.25 18.7935 21.25 19.2121 21.25H23.3333L22.5 27.5L27.997 19.8042C28.2403 19.4635 28.362 19.2932 28.3567 19.1512C28.3521 19.0276 28.2928 18.9124 28.1949 18.8368C28.0824 18.75 27.8731 18.75 27.4545 18.75H23.3333L24.1667 12.5Z" stroke="#0070C9" stroke-width="1.66667" stroke-linecap="round" stroke-linejoin="round"/>
</svg>
