<svg width="17" height="17" viewBox="0 0 17 17" fill="none" xmlns="http://www.w3.org/2000/svg">
<path d="M13.3333 10.8333C11.9525 10.8333 10.8333 11.9526 10.8333 13.3333C10.8333 14.714 11.9525 15.8333 13.3333 15.8333C14.714 15.8333 15.8333 14.714 15.8333 13.3333C15.8333 11.9526 14.714 10.8333 13.3333 10.8333ZM13.3333 10.8333V4.99998C13.3333 4.55795 13.1577 4.13403 12.8451 3.82147C12.5325 3.50891 12.1086 3.33331 11.6666 3.33331H9.16659M3.33325 5.83331C4.71396 5.83331 5.83325 4.71402 5.83325 3.33331C5.83325 1.9526 4.71396 0.833313 3.33325 0.833313C1.95254 0.833313 0.833252 1.9526 0.833252 3.33331C0.833252 4.71402 1.95254 5.83331 3.33325 5.83331ZM3.33325 5.83331V15.8333" stroke="#535862" stroke-width="1.66667" stroke-linecap="round" stroke-linejoin="round"/>
</svg>
