<svg width="17" height="17" viewBox="0 0 17 17" fill="none" xmlns="http://www.w3.org/2000/svg">
<path d="M0.833252 0.833374H0.841585M0.833252 8.33337H0.841585M0.833252 15.8334H0.841585M0.833252 12.0834H0.841585M0.833252 4.58337H0.841585M4.58325 0.833374H4.59159M4.58325 8.33337H4.59159M4.58325 15.8334H4.59159M12.0833 0.833374H12.0916M12.0833 8.33337H12.0916M12.0833 15.8334H12.0916M8.33325 0.833374H8.34159M8.33325 8.33337H8.34159M8.33325 15.8334H8.34159M8.33325 12.0834H8.34159M8.33325 4.58337H8.34159M15.8333 0.833374H15.8416M15.8333 8.33337H15.8416M15.8333 15.8334H15.8416M15.8333 12.0834H15.8416M15.8333 4.58337H15.8416" stroke="#535862" stroke-width="1.66667" stroke-linecap="round" stroke-linejoin="round"/>
</svg>
